# xmcd CD database file
#
# Track frame offsets:
#	150
#	21363
#	35045
#	51574
#	69095
#	84778
#	98021
#	116983
#	134280
#	153225
#	166136
#
# Disc length: 2397 seconds
#
# Revision: 0
# Processed by: cddbd v1.5.2PL0 Copyright (c) Steve Scherf et al.
# Submitted via: CDex 1.51
#
DISCID=89095b0b
DTITLE=Randy Rogers Band - Burning The Day
DYEAR=2010
DGENRE=Country
TTITLE0=Interstate
TTITLE1=Damn The Rain
TTITLE2=Too Late For Goodbye
TTITLE3=Missing You Is More Than I Can Do
TTITLE4=Holding On To Letting Go
TTITLE5=Just Don't Tell Me The Truth
TTITLE6=I've Been Looking For You So Long
TTITLE7=Steal You Away
TTITLE8=Starting Over For The Last Time
TTITLE9=I Met Lonely Tonight
TTITLE10=Last Last Chance
EXTD=YEAR: 2010
EXTT0=
EXTT1=
EXTT2=
EXTT3=
EXTT4=
EXTT5=
EXTT6=
EXTT7=
EXTT8=
EXTT9=
EXTT10=
PLAYORDER=
